<svg id='test' class='h-[70%]' xmlns="http://www.w3.org/2000/svg" xmlns:xlink="http://www.w3.org/1999/xlink" x="0px" y="0px" viewBox="0 0 900 600">
    <style type="text/css">
        .st0 {
        fill: none;
        stroke: #ffffff;
        stroke-width: 2;
        stroke-miterlimit: 10;
        }

        .st1 {
        fill: none;
        }

        .st2 {
        font-family: 'ArialMT';
        }

        .st3 {
        font-size: 14px;
        }
    </style>
    <g>
        <polygon class="st0" points="380.1,313 382,314.7 383.7,312.5 382.1,310.9 	" />
        <polygon class="st0" points="626.2,374.5 628.4,370.9 625.5,372 624.3,373.5 	" />
        <polygon class="st0" points="627.2,351 625.3,349.9 624.8,356 627.5,353.6 	" />
        <polygon class="st0" points="621.8,357.7 621.5,360.3 625.3,364 623.2,355.7 	" />
        <polygon class="st0" points="211.7,232.4 211.1,234.7 215,234.3 214.4,232.6 	" />
        <polygon class="st0" points="148.8,206 151.3,207.2 151.9,205.5 150.5,204.1 	" />
        <polygon class="st0" points="160.4,197.4 162.5,197.8 163.8,195.4 161.5,195 	" />
        <polygon class="st0" points="149.2,191.5 150.7,194.5 152.2,192.6 151.3,192 	" />
        <polygon class="st0" points="158.3,203.7 159.5,204.8 160.6,203.7 159.5,201.2 	" />
        <polygon class="st0" points="154.7,205.1 157.6,206.4 158.2,204.8 154.9,201.4 	" />
        <polygon class="st0" points="142.7,188.7 143,191.2 146.7,188.9 145,187.6 	" />
        <polygon class="st0" points="743,350.2 741.6,348.9 741.3,350.5 742.4,352.6 	" />
        <polygon class="st0" points="702.2,418.3 700.8,412.5 698,409.2 695.6,403.3 692.2,409 692.7,411 691.2,415.1 689.1,415.8 
            689.1,413.4 687.1,413.4 687.3,415.3 688.9,415.9 688.8,415.9 688.3,417.5 685.6,415.5 684.6,418.3 685.7,420.5 683.3,422.5 
            683.6,424.4 682.5,426.3 682.5,423.4 679,428.2 679,427.9 672.7,432.2 668.7,432.7 668.2,434.2 665.9,433.8 662.8,436.1 
            659.5,435.7 659.3,440 655.7,445.9 656.4,453.5 657.9,456.5 657.7,458.5 659.5,462.2 659.4,465 655.2,472.4 654.5,474.9 
            652.3,475.6 650.1,483.2 651.1,488.1 653.9,493 653.1,494.4 653.6,500.7 656,505.6 658.6,508 662,508.8 664.2,510.8 667,510.7 
            672.7,507.8 675.8,507.7 679.5,505.5 682.9,496.6 685.1,487.9 687.7,480.3 690.4,470.8 694.3,459 696.4,454 697.5,447.9 697,445.1 
            700.1,439.4 698.7,431.9 699.7,431.4 700.6,434.3 702.4,435.9 704.6,431.1 702.8,425.5 	" />
            <polygon class="st0" points="737.6,474.6 739,477 743.1,477.6 743.6,475.5 740.4,472.8 	" />
            <polygon class="st0" points="667.6,409.7 663.7,408.8 665.7,413 666.2,410.7 	" />
            <polygon class="st0" points="633.6,197.7 629.2,193.6 627.9,195.8 629.7,196.9 	" />
            <polygon class="st0" points="399.7,287.1 397.4,285.8 394.6,290.4 397.2,291.2 	" />
            <polygon class="st0" points="755.2,466.3 753.6,471.4 756.9,471.1 757.2,467.3 	" />
            <polygon class="st0" points="660.9,403.9 659.5,405.1 656.4,404.6 661.3,408.2 	" />
            <polygon class="st0" points="653.1,399.5 651.3,398.6 651.1,403 653.7,404.6 	" />
            <polygon class="st0" points="711.6,231.4 713.3,226.1 708.9,224.6 704.8,227.7 699.7,228.6 695.2,230.2 693.1,229.5 689.3,230.9 
                683.4,230.6 676.6,234.2 671.9,232.8 665.6,236.3 660.8,235.9 657.7,233.4 653.6,228.6 653.9,228.2 653.2,228.1 652.9,227.7 
                652.6,228 649.8,227.6 649.9,227.2 654.5,224.9 654.2,220.7 652.9,219.2 653,219.1 652.6,218.9 652.3,218.5 652.1,218.6 
                649.8,217.3 646.2,211.9 641.7,209 637.8,203.5 634.9,203 633,200.6 631.2,201.3 627.9,196.4 626.7,198.3 625.3,196.8 623.8,192.4 
                623.3,188.3 621.5,182.2 619.4,177.8 619.5,177.6 619.1,177.3 618.8,176.7 618.6,176.9 615.2,174.6 612.2,171.4 611.3,171.5 
                609.9,168.5 608.8,159 609.2,157.3 608.4,151.5 606.7,148.4 606.7,146.2 607.3,146.2 606.7,145.5 606.7,145.2 606.4,145.2 
                601.6,139.9 597.9,137.6 596.5,133.2 596.7,129.8 598.8,129.6 594.5,125.6 589.4,114.6 585.5,107.2 585.4,105.2 581.7,98.4 
                581.8,95.6 576.9,90.1 575.2,87 575,83.6 573.2,81.5 574.2,79.8 575,82.9 578.1,86.8 578.8,90.8 585.5,97.8 588.7,96 588.5,93 
                590.3,89.1 591.8,80.5 587,66 582.6,67.9 578.5,66.8 574.8,68.3 572.7,66.4 570.9,68.1 569.1,66.7 570.6,64.1 566.7,65 564.3,63.8 
                559.3,65.4 557.8,64.4 551.2,69.4 547.8,70.5 543.4,68.3 539.5,67.9 535.4,65.8 523.8,63.5 520.7,64.4 519.5,63.6 519.6,63.5 
                518,60.1 511.1,59.7 504,57 503.9,54.1 496.4,51.4 492.3,51.6 484.2,54.9 480.3,58.6 479.1,63 480.8,67.4 480,70.7 478.1,73.3 
                475.1,75 472.6,75.2 466.9,70.9 460.7,68.2 455.8,67 450.9,66.6 446.9,63.3 444.6,56.7 439,55.5 436.9,53.8 430.4,52.1 425.8,53.1 
                423,52.8 416.2,49.4 416.1,49.9 414.3,49.6 412.8,45.9 413.7,44.9 412.2,43.5 409.8,43.8 410.6,45.2 407.7,45.3 405.9,43.1 
                406.4,40.4 409.9,38.4 414.2,31.7 413.3,27.8 410,25.5 409.3,21.6 411.3,20.6 413.9,16.3 413.1,13.4 408.3,16.8 406.8,14.3 
                407.7,13.1 403.9,11.4 398.8,12.3 394.3,15.1 389.4,16.1 385.3,13.7 381.7,15.6 377.2,13.9 376,15.7 369.2,17.9 365.9,15.8 
                358.4,15.6 355.7,16.9 351.6,16.7 349.3,18.7 337.4,19.9 330.5,24.2 328.8,26.4 327.2,25.4 320.5,28.8 319.9,30.6 316.4,32.9 
                312.1,33.4 312.2,33.6 308.8,33.2 308.1,31.6 304.5,32.8 302.6,32 297.3,33.4 294.5,32.6 291.1,29.6 289.8,26.2 285.3,27.6 
                282.5,36.3 278.6,44 273.8,47.4 266.1,51 260.4,57.6 259.7,62.6 256.1,68.2 255.9,74.9 258,77.3 257.7,79.4 254.2,85.4 251.1,89.1 
                247.7,91.1 244.4,94.9 240.3,96.8 233.4,98.5 231.8,100.6 228.6,109 222.8,112.8 220,119.8 219.2,126.1 213,132.9 209.1,140.9 
                207.6,145.5 206.2,145.9 204.2,150.2 203.8,153.8 203.9,153.8 203.4,158.1 203.7,158.7 202.9,164.7 204.4,159.9 204.5,160 
                204.6,159.4 205.3,157.1 207,160.3 208,159.8 210.2,163.3 207.8,169.9 210.3,173.2 211.8,181.1 210.8,186.5 208.8,191.3 
                208.4,196.8 208.2,197.4 204.1,204.1 200.1,206 203.9,207.1 205.6,209.2 208.3,214.8 206.4,216.7 207,218.5 206.9,218.5 
                206.8,222.5 207.1,224.3 206.7,224.4 207.2,224.7 207.2,224.9 207.4,224.9 213.5,229.7 216.8,228.3 214.4,232.2 216.8,230.7 
                217.4,233.3 219.9,234.8 219.9,234.9 223.3,237 224.5,240.6 231,243.9 233.2,249.1 234.5,256.2 235.9,255.6 236,257.8 238.3,259.3 
                233.9,259.8 239,261.2 239.3,261.4 239.2,261.7 239.9,261.9 241,262.9 240.7,262.2 244.7,263.6 247,265 248.1,266.9 255.3,270.7 
                263.7,278.2 271.4,282.3 276.7,283.9 276.8,284.5 277.4,284.1 277.6,284.2 277.5,284.1 282,281.9 289.7,279 303.3,277.3 
                308.3,278.1 309.9,278 315.2,279 317.4,280.5 321.4,278.2 327,276.6 330.2,274.5 335.2,272.3 340.4,271.8 341.7,269.9 343.3,269.4 
                344.7,269.1 344.7,269.2 346.7,268.7 352.7,267.9 360.9,267.5 364.8,268 368.2,270.5 371.6,275.2 373.5,280.6 378.2,283.4 
                384.5,282.4 384.4,282.6 391.5,281.5 394.4,281.3 394.1,278.6 395.6,279.1 395,281 398.3,280.8 398.6,284 401.5,285.5 403.4,285.3 
                403.6,288.2 405.9,291.5 405,296 404.7,295.7 404.8,300.1 401.3,305.8 403.2,306.6 403.1,306.6 403.7,309.1 401,308.9 402.7,312 
                401.5,310.5 401.1,317.1 399.8,318.9 396.5,317.7 399.7,324.4 401.8,324.7 401.3,328.3 406.1,334.6 411.4,339.1 411.5,340 
                414.6,343.2 414.3,343.6 419.9,349 421.6,352.6 421.8,352.3 423.1,355.1 423,356.6 422.5,356.7 423,357.4 423,357.7 423.2,357.6 
                424.4,359.1 423.4,359.2 426.4,364.3 427.8,365.6 428,368.1 431.8,376.1 431.9,379 429,381.7 430.6,386.5 434.7,393.6 435.4,396.9 
                435.1,401.8 434,405.3 432.2,407.7 428.9,409.5 429,410.9 425.8,414.4 425.7,417.6 424.5,419.4 424.1,424.6 422.2,431 420.3,432.5 
                420.9,437.9 420.5,443.2 420.1,443.4 419.8,446 420.8,450.7 424.1,455.1 430.4,466.5 432.2,471.7 435.5,476.7 436.3,479.2 
                439.5,483.1 440.6,487.5 440.2,498.1 442.5,503.3 443,511.1 443.9,515.8 446.3,523.9 449.3,529.2 454.4,534.6 455,534.6 
                457.3,538.9 460.9,549.7 465.4,558.2 467.3,560.8 468.6,565.7 468.1,568.8 464.8,570.4 469.6,579.7 468.2,582.8 472.3,582.7 
                472,584.6 475.7,584.9 478.4,588.2 481.1,588.5 485.4,585.2 488.1,584.4 493.8,584.6 500.1,581.1 506.2,582.1 507.8,581 
                516.9,582.9 517.6,581 523.3,581.4 523,579.2 524.6,578.6 528.7,579.1 533.5,576.6 539,572.8 546.2,566.1 549.9,561.5 554.4,557.7 
                557.3,553.7 563.1,542.9 567.1,537.9 571.8,534.4 573.1,531.2 575.8,519.4 575.7,519.4 576.6,509.3 574.6,514.1 573,512.3 
                575.3,509.5 581.4,506.1 588.1,503.7 591.5,502 594.7,497.8 593.9,495.5 594.9,488 594.5,479.5 593.3,482 593.1,478 591.3,473.4 
                591.1,470.6 588.7,468.2 589.3,464.5 591.8,463.2 595.9,458.8 601.9,454.5 606.4,449 612.3,445.3 621.3,441.4 627.1,437.9 629,434 
                632.3,430.6 632.5,428.1 634,425.4 634.1,422.6 632,416.3 632.4,411.2 631.3,401.3 632.7,395.2 631.2,392 631.3,391 626.2,388.2 
                626.6,387.6 625.5,382.5 623.4,378.8 622.8,376.1 624.2,373.7 622.9,370.6 624.8,367.2 624.1,364.8 619.7,361 619.2,359 
                621.9,352.3 622.2,349.8 624,349.2 627,343.8 628.4,339.8 630.3,336.8 630.1,335.3 633,333.9 635.6,331 635.4,329.9 637.9,329.6 
                639.2,328.3 639.2,328.3 639.2,328.3 640.1,327.3 640.1,326.9 644,321.1 654.2,310.3 662.2,303.4 673.2,297 677.8,292.6 687.7,282 
                693,274.5 696,269.4 698.4,262.8 701.9,257.5 702.1,255.8 705.4,252 706.4,249.1 709.6,244.7 710.3,238.3 714.7,236.9 712.2,235.8 
                " />
            </g>
            <path class="st1" d="M890,295h10v10h-10V295z" />
            <path class="st1" d="M5,5" />
        </svg>